{"title":"Tamiluku En Ondrai Aluthavum (2015) Scr Rip x264 AAC 700MB","uid":11723661,"size":733990099,"categoryP":"video","categoryS":"movies","magnet":"?xt=urn:btih:0066bb4f590b77cdfe2ae1212c642f88ad694b3b&amp;dn=Tamiluku+En+Ondrai+Aluthavum+%282015%29+Scr+Rip+x264+AAC+700MB&amp;tr=udp%3A%2F%2Ftracker.openbittorrent.com%3A80&amp;tr=udp%3A%2F%2Fopen.demonii.com%3A1337&amp;tr=udp%3A%2F%2Ftracker.coppersurfer.tk%3A6969&amp;tr=udp%3A%2F%2Fexodus.desync.com%3A6969","seeders":16,"leechers":0,"uploader":"TeamXDN","files":1,"time":1424969474,"description":"Tamiluku En Ondrai Aluthavum (2015) Scr Rip x264 AAC 700MB\n &lt;a href=&quot;\nhttp://someimage.com/fG2vRCH&quot; rel=&quot;nofollow&quot; target=&quot;_NEW&quot;&gt;\nhttp://someimage.com/fG2vRCH&lt;/a&gt; &lt;a href=&quot;\nhttp://someimage.com/SmBrSEe&quot; rel=&quot;nofollow&quot; target=&quot;_NEW&quot;&gt;\nhttp://someimage.com/SmBrSEe&lt;/a&gt; &lt;a href=&quot;\nhttp://someimage.com/cSCU9Rp&quot; rel=&quot;nofollow&quot; target=&quot;_NEW&quot;&gt;\nhttp://someimage.com/cSCU9Rp&lt;/a&gt; &lt;a href=&quot;\nhttp://someimage.com/Q4hg3Ys&quot; rel=&quot;nofollow&quot; target=&quot;_NEW&quot;&gt;\nhttp://someimage.com/Q4hg3Ys&lt;/a&gt; &lt;a href=&quot;\nhttp://someimage.com/OiQwUAW&quot; rel=&quot;nofollow&quot; target=&quot;_NEW&quot;&gt;\nhttp://someimage.com/OiQwUAW&lt;/a&gt; &lt;a href=&quot;\nhttp://someimage.com/6EkgegB&quot; rel=&quot;nofollow&quot; target=&quot;_NEW&quot;&gt;\nhttp://someimage.com/6EkgegB&lt;/a&gt; &lt;a href=&quot;\nhttp://someimage.com/Vks4rBe&quot; rel=&quot;nofollow&quot; target=&quot;_NEW&quot;&gt;\nhttp://someimage.com/Vks4rBe&lt;/a&gt; &lt;a href=&quot;\nhttp://someimage.com/i2PbsAM&quot; rel=&quot;nofollow&quot; target=&quot;_NEW&quot;&gt;\nhttp://someimage.com/i2PbsAM&lt;/a&gt; &lt;a href=&quot;\nhttp://someimage.com/8QoZN5w&quot; rel=&quot;nofollow&quot; target=&quot;_NEW&quot;&gt;\nhttp://someimage.com/8QoZN5w&lt;/a&gt; &lt;a href=&quot;\nhttp://someimage.com/XTVA3md&quot; rel=&quot;nofollow&quot; target=&quot;_NEW&quot;&gt;\nhttp://someimage.com/XTVA3md&lt;/a&gt; &lt;a href=&quot;\nhttp://someimage.com/O2Sunzb&quot; rel=&quot;nofollow&quot; target=&quot;_NEW&quot;&gt;\nhttp://someimage.com/O2Sunzb&lt;/a&gt; &lt;a href=&quot;\nhttp://someimage.com/LYg6mBG&quot; rel=&quot;nofollow&quot; target=&quot;_NEW&quot;&gt;\nhttp://someimage.com/LYg6mBG&lt;/a&gt;\n\nFormat : MPEG-4\nFormat profile : Base Media\nCodec ID : isom\nFile size : 700 MiB\nDuration : 2h 9mn\nOverall bit rate mode : Variable\nOverall bit rate : 754 Kbps\nEncoded date : UTC 2015-02-26 15:25:24\nTagged date : UTC 2015-02-26 15:25:24\n\nVideo\nID : 1\nFormat : AVC\nFormat/Info : Advanced Video Codec\nFormat profile : &lt;a class=&quot;__cf_email__&quot; href=&quot;/cdn-cgi/l/email-protection&quot; data-cfemail=&quot;e8a0818f80a8a4dac6d9&quot;&gt;[email&amp;#160;protected]&lt;/a&gt;&lt;script cf-hash='f9e31' type=&quot;text/javascript&quot;&gt;\n/* &lt;![CDATA[ */!function(){try{var t=&quot;currentScript&quot;in document?document.currentScript:function(){for(var t=document.getElementsByTagName(&quot;script&quot;),e=t.length;e--;)if(t[e].getAttribute(&quot;cf-hash&quot;))return t[e]}();if(t&amp;&amp;t.previousSibling){var e,r,n,i,c=t.previousSibling,a=c.getAttribute(&quot;data-cfemail&quot;);if(a){for(e=&quot;&quot;,r=parseInt(a.substr(0,2),16),n=2;a.length-n;n+=2)i=parseInt(a.substr(n,2),16)^r,e+=String.fromCharCode(i);e=document.createTextNode(e),c.parentNode.replaceChild(e,c)}}}catch(u){}}();/* ]]&gt; */&lt;/script&gt;\nFormat settings, CABAC : Yes\nFormat settings, ReFrames : 4 frames\nCodec ID : avc1\nCodec ID/Info : Advanced Video Coding\nDuration : 2h 9mn\nBit rate : 691 Kbps\nMaximum bit rate : 2 341 Kbps\nWidth : 608 pixels\nHeight : 256 pixels\nDisplay aspect ratio : 2.40:1\nFrame rate mode : Constant\nFrame rate : 25.000 fps\nColor space : YUV\nChroma subsampling : 4:2:0\nBit depth : 8 bits\nScan type : Progressive\nBits/(Pixel*Frame) : 0.178\nStream size : 641 MiB (92%)\nWriting library : x264 core 142 r2431 ac76440\nAudio\nID : 2\nFormat : AAC\nFormat/Info : Advanced Audio Codec\nFormat profile : HE-AAC / LC\nCodec ID : 40\nDuration : 2h 9mn\nBit rate mode : Variable\nBit rate : 59.8 Kbps\nMaximum bit rate : 67.5 Kbps\nChannel(s) : 2 channels\nChannel positions : Front: L R\nSampling rate : 44.1 KHz / 22.05 KHz\nCompression mode : Lossy\nStream size : 55.5 MiB (8%)\nEncoded date : UTC 2015-02-25 19:25:54\nTagged date : UTC 2015-02-26 15:27:00","torrent":{"xt":"urn:btih:0066bb4f590b77cdfe2ae1212c642f88ad694b3b","amp;dn":"Tamiluku+En+Ondrai+Aluthavum+%282015%29+Scr+Rip+x264+AAC+700MB","amp;tr":["udp%3A%2F%2Ftracker.openbittorrent.com%3A80","udp%3A%2F%2Fopen.demonii.com%3A1337","udp%3A%2F%2Ftracker.coppersurfer.tk%3A6969","udp%3A%2F%2Fexodus.desync.com%3A6969"],"infoHash":"0066bb4f590b77cdfe2ae1212c642f88ad694b3b","infoHashBuffer":{"type":"Buffer","data":[0,102,187,79,89,11,119,205,254,42,225,33,44,100,47,136,173,105,75,59]},"announce":[],"urlList":[]}}